<svg width="30" height="36" viewBox="0 0 30 36" fill="none" xmlns="http://www.w3.org/2000/svg">
<path d="M3 10.6667V10C3 6 3 6 7 6C8.28 6 19 6 25.4 6C25.9333 6 27 6.32 27 7.6C27 8.88 27 20.9333 27 26.8C27 27.8667 26.36 30 23.8 30C21.24 30 9.93333 30 4.6 30C4.06667 30 3 29.68 3 28.4C3 27.12 3 26.4 3 25.3333" stroke="white" stroke-width="4" stroke-linecap="round"/>
<path d="M3 18H18" stroke="white" stroke-width="4" stroke-linecap="round"/>
<path d="M13 12L19 18L13 24" stroke="white" stroke-width="4" stroke-linecap="round"/>
</svg>
