<svg width="90" height="90" xmlns="http://www.w3.org/2000/svg">
 <title>PT Telekomunikasi Indonesia (Persero) Tbk - Telkom Indonesia (Logo)</title>
 <metadata id="metadata3935">image/svg+xmlPT Telekomunikasi Indonesia (Persero) Tbk - Telkom Indonesia (Logo)</metadata>
 <g>
    <path id="path3115-0" d="m34.075439,28.003418c-14.047577,0 -25.43203,10.978058 -25.43203,24.532887s11.384453,24.548527 25.43203,24.548527s25.432022,-10.993706 25.432022,-24.548527s-11.384445,-24.532887 -25.432022,-24.532887zm-1.325241,7.856541c9.080307,0 16.439072,7.005867 16.439072,15.650478s-7.358765,15.650482 -16.439072,15.650482s-16.439072,-7.005863 -16.439072,-15.650482s7.358765,-15.650478 16.439072,-15.650478z" fill="#5c5c5c"/>
    <path id="path3912-9" fill="#d51100" d="m51.099121,1.041075c-0.809738,-0.024314 -1.463013,0.312924 -2.177185,0.804637c-0.874756,0.60224 -1.632141,1.578224 -2.08252,2.540022c-2.301987,4.916018 -4.478058,9.653318 -6.67366,14.372694c-0.539688,1.160103 -1.161469,2.457428 -2.098297,3.328907c-0.586929,0.546 -1.169174,1.038637 -1.940536,0.820389c-0.798035,-0.225813 -1.064041,-0.606583 -1.341003,-1.38835c-0.352493,-0.994766 -0.330872,-2.941988 -0.441757,-3.991478c-0.216675,-2.051072 0.053467,-4.158838 -0.473297,-6.153163c-0.247437,-0.936707 -1.086853,-3.020341 -2.382294,-3.092232c-1.981461,-0.109988 -3.411209,2.914775 -4.259705,4.606794c-1.983475,3.955432 -2.631149,8.382094 -2.587387,14.798285c0.004547,0.683876 0.054932,2.050968 0.054932,2.050968s2.82016,-0.948063 4.252075,-1.230579c0.827866,-0.163332 1.66925,-0.294928 2.524277,-0.378641s1.725189,-0.126213 2.603134,-0.126213s1.748108,0.042498 2.603134,0.126213s1.696411,0.215309 2.524261,0.378641c1.65567,0.326656 3.258987,0.799387 4.780365,1.419901s2.954056,1.374567 4.307007,2.256092s2.620087,1.887856 3.77066,2.997574c1.150513,1.109718 2.194,2.32354 3.107986,3.628639s1.691559,2.713184 2.334946,4.180798c0.643387,1.467663 1.144302,3.009384 1.483017,4.606792c0.169357,0.798679 0.307587,1.604637 0.394409,2.429611s0.126221,1.661324 0.126221,2.508522c0,0.847145 -0.039383,1.683384 -0.126221,2.508514c-0.086823,0.825085 -0.225052,1.646488 -0.394409,2.445415c-0.338745,1.597816 -0.83963,3.138378 -1.483017,4.6068c-0.257889,0.588551 -0.51738,1.124004 -0.820389,1.688129c0.0466,0.009434 0.25325,0.053745 0.299759,0.063107c2.884583,0.580837 5.660431,0.856533 8.598175,0.694172c4.562714,-0.252174 9.326172,-0.557907 13.347336,-2.729336c1.355804,-0.732189 3.143219,-1.820206 3.18689,-3.360413c0.039688,-1.400818 -1.373413,-2.444359 -2.57164,-3.171089c-1.206039,-0.731537 -2.989548,-0.825886 -4.38591,-1.025459c-2.077789,-0.297009 -3.862579,-0.029785 -6.073898,-0.283981c-1.800827,-0.207012 -4.474014,-0.566296 -4.859222,-2.429611c-0.367065,-1.775631 1.825653,-3.309368 3.123795,-4.575241c2.618973,-2.553856 5.916382,-4.29641 8.787476,-6.563103c3.312912,-2.615501 6.493439,-4.986496 9.497314,-7.951454c0.954941,-0.942461 1.876648,-1.670261 2.587387,-2.808252c0.506012,-0.81024 1.113907,-2.077978 1.025452,-3.029125c-0.058807,-0.632734 -0.405045,-1.110325 -0.930847,-1.467207c-0.853699,-0.579573 -1.776428,-0.512022 -2.808243,-0.504854c-1.06601,0.007425 -1.960144,0.262201 -2.966019,0.615316c-2.769669,0.972248 -5.380219,2.365444 -8.014557,3.660192c-1.946671,0.956751 -3.66539,2.460205 -5.758377,3.029125c-1.257233,0.341738 -3.076843,1.186007 -3.896866,0.173544c-0.798172,-0.985424 0.457779,-2.505844 0.946594,-3.675943c1.003967,-2.403259 2.631302,-4.509459 4.007278,-6.720619c1.542084,-2.478329 3.352142,-4.781727 4.764572,-7.336037c0.69397,-1.255068 1.56691,-2.499937 1.814346,-3.91262c0.177719,-1.014757 0.208069,-2.162947 -0.268204,-3.07648c-0.273376,-0.524341 -0.781372,-0.999712 -1.356796,-1.135922c-1.040955,-0.246409 -2.193283,0.212973 -3.171082,0.646819c-1.436874,0.63758 -3.377274,2.036027 -4.464844,3.17109c-3.696945,3.858702 -6.684265,7.252229 -10.191986,10.838714c-1.200562,1.227552 -2.813004,3.417913 -4.385925,2.729343c-1.08902,-0.476698 -0.863403,-2.276085 -0.725723,-3.43932c0.418015,-3.532261 1.171448,-7.159337 1.577667,-10.759452c0.191528,-1.697622 0.555435,-3.545692 0.410202,-5.111649c-0.080139,-0.863906 -0.176407,-1.690403 -0.678436,-2.398057c-0.356827,-0.503031 -1.078583,-0.773537 -1.68808,-0.867743c-0.126205,-0.015348 -0.252426,-0.024536 -0.368546,-0.027969l0.00621,-0.004165l0,-0.000005zm-18.346405,34.819288c-1.135056,0 -2.242859,0.107082 -3.313095,0.315533s-2.124588,0.487549 -3.107986,0.883495c-0.022125,0.008896 -0.032913,0.045967 -0.054932,0.054958c0.010864,0.029091 0.028229,0.073967 0.039169,0.10281c1.834763,4.825092 4.027527,9.740654 7.383499,13.694168c3.376053,3.977345 7.726791,7.143181 12.386597,9.56699c0.024887,0.01292 0.083572,0.044022 0.108551,0.056824c0.066864,-0.090084 0.124405,-0.176727 0.189316,-0.268204c0.590775,-0.8326 1.098648,-1.730034 1.514557,-2.666233c0.415878,-0.936203 0.743454,-1.915623 0.962357,-2.934467c0.218948,-1.018848 0.331299,-2.074799 0.331299,-3.155338s-0.11235,-2.136494 -0.331299,-3.155338s-0.546509,-1.998264 -0.962357,-2.934464c-0.415894,-0.936203 -0.923782,-1.833683 -1.514557,-2.666241c-0.59079,-0.832603 -1.259979,-1.595387 -2.003677,-2.303394s-1.555054,-1.362297 -2.429611,-1.924759s-1.809052,-1.039742 -2.792435,-1.435699c-0.983414,-0.395947 -2.022003,-0.706596 -3.092239,-0.915051s-2.17804,-0.315533 -3.313095,-0.315533l-0.000061,-0.000061l0,0.000004z"/>
    <path id="path3910-4" fill="#ffffff" d="m56.682816,63.784958c0.302994,-0.564072 0.5625,-1.101742 0.820374,-1.690353c0.643402,-1.468418 1.144318,-3.00898 1.483017,-4.606792c0.169373,-0.798935 0.307602,-1.620281 0.394409,-2.445415c0.086823,-0.825081 0.126221,-1.66132 0.126221,-2.508514c0,-0.847149 -0.039383,-1.683491 -0.126221,-2.508522c-0.086807,-0.824986 -0.225037,-1.630932 -0.394409,-2.429611c-0.33873,-1.597408 -0.839615,-3.139133 -1.483017,-4.606796s-1.420959,-2.875748 -2.334946,-4.180794c-0.913986,-1.305107 -1.957458,-2.518921 -3.107971,-3.628639s-2.417664,-2.116055 -3.77066,-2.997574c-1.352966,-0.881525 -2.78569,-1.635576 -4.307007,-2.256094c-1.521393,-0.620516 -3.124649,-1.093262 -4.780365,-1.419901c-0.827866,-0.163332 -1.66925,-0.294926 -2.524277,-0.378641s-1.725189,-0.126213 -2.603119,-0.126213s-1.748123,0.042498 -2.603149,0.126213s-1.696411,0.215309 -2.524261,0.378641c-1.431931,0.282507 -2.918655,0.710835 -4.251831,1.214781c0.16153,2.001795 0.723145,5.083368 1.583572,7.393587c0.022064,-0.008984 0.042953,-0.016739 0.065079,-0.025635c0.983414,-0.395947 2.021988,-0.706593 3.092239,-0.915051s2.17804,-0.315533 3.31311,-0.315533s2.242859,0.107079 3.313095,0.315533s2.108826,0.519093 3.092239,0.915051c0.983398,0.395947 1.917877,0.873196 2.792435,1.435703c0.874557,0.562458 1.685928,1.216747 2.429611,1.924759s1.412857,1.470791 2.003677,2.303398c0.590775,0.832603 1.098663,1.73003 1.514557,2.666233c0.415894,0.936203 0.743454,1.915619 0.962357,2.934464c0.218964,1.018848 0.331299,2.074802 0.331299,3.155338s-0.112335,2.136494 -0.331299,3.155338s-0.546509,1.998264 -0.962357,2.934467c-0.415894,0.936203 -0.923782,1.833683 -1.514557,2.666237c-0.064911,0.091476 -0.128372,0.176144 -0.195236,0.266228c3.46553,1.595791 7.242645,2.589302 10.497437,3.254086l-0.000046,0.000023z"/>
 </g>
</svg>