<?xml version="1.0" encoding="UTF-8"?>
<!-- Generator: Adobe Illustrator 18.0.0, SVG Export Plug-In . SVG Version: 6.00 Build 0)  -->
<!DOCTYPE svg PUBLIC "-//W3C//DTD SVG 1.1//EN" "http://www.w3.org/Graphics/SVG/1.1/DTD/svg11.dtd">
<svg version="1.1" id="Swift" xmlns="http://www.w3.org/2000/svg" xmlns:xlink="http://www.w3.org/1999/xlink" x="0px" y="0px" viewBox="0 0 314.1 191.1" enable-background="new 0 0 314.1 191.1" xml:space="preserve">
<g id="Swift_Circle" opacity="0.5">
	<path fill="#D9D9D9" d="M213.4,3.9c51.6,0,93.5,41.9,93.5,93.6c0,51.7-41.9,93.6-93.5,93.6c-51.6,0-93.5-41.9-93.5-93.6   C119.9,45.8,161.8,3.9,213.4,3.9z"/>
</g>
<g id="Swift_Shadow" opacity="0.8">
	<path fill-rule="evenodd" clip-rule="evenodd" fill="#C8C8C8" d="M120.1,97.8c0,8.4,1.1,16.6,3.2,24.3c-2.5,0.8-4.9,1.7-7.4,2.5   c0,0,2.7-0.6,7.7-1.5c5.3,18.9,16.4,35.4,31.2,47.4c-3.4,0.7-6.8,1.2-10.5,1.6l6.9,6.4c24,2.7,34.7-3.3,46.7-11.9   c30.9-22.1,35.5-45.8,35.8-46.4c0.2-0.4-16.8-5.8-17.2-21.6c-0.3-10.5,9.2-18.8,9.2-18.8l1.4-1.2c0,0-6.6-46.2-47.9-66.2h-9   l-9.5,3.1c1.2,0.9,2.1,1.4,3.3,2.3c-21.3,13.3-36.5,35.2-41.8,60.5c-2.6-0.4-5.2-0.8-7.9-1.3c0,0,2.9,0.9,7.7,2.3   C120.7,85.4,120.1,91.5,120.1,97.8z"/>
</g>
<g id="Swift_Outer">
	<g>
		<g>
			<path fill-rule="evenodd" clip-rule="evenodd" fill="#3B3F45" d="M283.4,79.2c-0.3-1.8-10.6-2.6-13.5-3.8     c0,0-25.3-73.3-130.7-75.4c0,0,0,0,0,0c-0.3,0-0.6,0-0.9,0c0,0,10.1,6.5,23.4,16.5c-2.8,1.1-5.2,2.5-7.1,4.4     c19.5,13.7,50.3,30.1,64,56.9c-4.9,1.2-16.8,3.4-36.6,3.6c-0.8,0-1.6,0-2.4,0c-0.3,0-0.5,0-0.8,0c-15.8,0-36.2-1.2-61.5-5     c-0.2,0-0.4-0.1-0.6-0.1c-1.8-0.3-3.6-0.6-5.4-0.8c-0.3-0.1-0.6-0.1-1-0.2c-1.9-0.3-3.7-0.6-5.6-0.9c0,0,57.6,16.9,84.2,28.8     c0,0-46.6,11.6-82.5,24.2c0,0,49.6-12,103.7-12.1c6.6,0,9.8,7.8,16.8,9.1c-1.3,2-5.4,8-12.7,15.1c-15.8,11.1-41.1,24.8-66.6,26.7     c1,1.6,2.2,3.3,3.9,4.8c-9.5,1.7-20,2.4-31.5,1.9c0,0,0.6,0.4,1.9,1c-0.3,0-0.7,0-1,0c0,0,38.3,20.9,80.8,8.2     c54.8-16.3,65.9-40.4,76.8-59.4c11.1-19.2,35.5-23.3,35.5-23.3S285,90.1,283.4,79.2z M271.3,128.5c-8,13.8-18.4,28.5-45.4,40.9     c-5.2,1.9-10.7,3.5-16.5,4.6c-30.6,6.1-45.5,4.2-53.5,0c22.6-4.7,39.2-14.2,50.2-22.6c16.6-12.6,24.1-25.2,24.4-25.8l3.1-5.3     l-5.8-0.4c-3-0.2-5-1.8-7.2-3.7c-2.7-2.2-5.7-4.7-10.3-4.7c-22.5,0.1-6.2-1.8-22.1,0c13.2-5.3,2.1-5,2.3-5l7.4-3.5l-7.5-3.4     c-11.4-5.1,8.6-1.2-1.3-5.8c14.5,1.8-4.2-6.8,7.9-6.8c18.4,0,22.9-2.8,23.3-5.3c2.3-0.8,3.4-1.4,3.5-1.5l3.2-1.7l-1.7-3.4     c-10.7-21.3-37.9-44.7-58.5-60.3c13.8-2.9,33.8,0.9,49,7.4c9.1,5.2,16.6,11,22.7,16.8c18,17.2,27.3,37,29,40.7c0,0,0,0,0,0.1     c0,0.1,0.1,0.1,0.1,0.2c0,0.1,0.1,0.2,0.1,0.2c0,0,0,0,0,0c0,0.1,0,0.1,0,0.1l0.6,1.4C268.2,82,278.7,102.2,271.3,128.5z      M285.7,99.7c-1.8,0-3.3-1.5-3.3-3.3c0-1.8,1.5-3.3,3.3-3.3c1.8,0,3.3,1.5,3.3,3.3C289,98.2,287.5,99.7,285.7,99.7z M0,39.9h96.5     v-2.8H0V39.9z M0,100.6h96.5v-2.8H0V100.6z M0,161.3h96.5v-2.8H0V161.3z"/>
		</g>
	</g>
</g>
  <style>
    @media (prefers-color-scheme: dark) {
      :root {
        filter: invert(100%);
      }
    }
  </style>
</svg>