<?xml version="1.0" encoding="UTF-8"?>
<!-- Generator: Adobe Illustrator 23.0.5, SVG Export Plug-In . SVG Version: 6.00 Build 0)  -->
<svg version="1.1" id="Layer_1" xmlns="http://www.w3.org/2000/svg" xmlns:xlink="http://www.w3.org/1999/xlink" x="0px" y="0px" viewBox="0 0 591 410" style="enable-background:new 0 0 591 410;" xml:space="preserve">
<style type="text/css">
	.st0{fill:#3B3F45;}
	.st1{fill:#3B3F45;stroke:#3B3F45;stroke-width:0.5;stroke-miterlimit:10;}
	.st2{fill:#95CDE2;}
	.st3{fill-rule:evenodd;clip-rule:evenodd;fill:#8CC5DA;}
	.st4{fill-rule:evenodd;clip-rule:evenodd;fill:#3B3F45;}
</style>
<g>
	<g>
		<path class="st0" d="M27.3,281.6l-20.8,47H15l4.7-10.7h23.6l4.7,10.7h8.5l-20.8-47H27.3z M23,310.6l8.6-19.4l8.6,19.4H23z     M119.1,306c-2.5-2.1-6.1-3.7-10.9-4.9c-4.8-1.2-8-2.3-9.5-3.3c-1.5-1-2.2-2.5-2.2-4.4c0-1.9,0.7-3.3,2.2-4.3    c1.5-0.9,3.4-1.4,5.7-1.4c2.3,0,4.7,0.4,7.1,1.2c2.4,0.8,4.3,1.8,5.7,3.1l4.3-6c-2.2-1.8-4.7-3.2-7.7-4.2c-3-1-6-1.5-9-1.5    c-4.7,0-8.6,1.2-11.8,3.5c-3.2,2.4-4.8,5.7-4.8,10c0,4.3,1.4,7.6,4.2,9.7c1.4,1.1,3,2,4.8,2.7c1.8,0.7,4.4,1.5,7.9,2.3    c3.5,0.8,5.9,1.7,7.3,2.8c1.4,1,2.1,2.4,2.1,4.2c0,1.8-0.8,3.3-2.3,4.4c-1.5,1.1-3.5,1.6-6.1,1.6c-5.1,0-10.1-2.1-14.8-6.2l-5,6    c5.7,5.1,12.3,7.6,19.6,7.6c5,0,9.1-1.3,12.2-3.8c3.1-2.6,4.7-5.9,4.7-10C122.8,311.2,121.5,308.1,119.1,306z M155.1,288.9h14.3    v39.7h8v-39.7h14.3v-7.3h-36.6V288.9z M237.9,281.6l-20.8,47h8.5l4.7-10.7h23.6l4.7,10.7h8.5l-20.8-47H237.9z M233.6,310.6    l8.6-19.4l8.6,19.4H233.6z M294.1,314.5h67.5v-7.8h-67.5V314.5z M426.5,307.6c0,4.3-1.1,7.7-3.2,10.2c-2.2,2.5-5.1,3.8-8.8,3.8    c-3.7,0-6.6-1.3-8.8-3.8c-2.2-2.5-3.2-5.9-3.2-10.2v-26h-8v26.4c0,6.8,1.9,12,5.6,15.6c3.7,3.7,8.5,5.5,14.4,5.5    c5.8,0,10.6-1.8,14.4-5.5c3.7-3.7,5.6-8.9,5.6-15.6v-26.4h-8V307.6z M502.9,306c-2.5-2.1-6.1-3.7-10.9-4.9c-4.8-1.2-8-2.3-9.5-3.3    c-1.5-1-2.2-2.5-2.2-4.4c0-1.9,0.7-3.3,2.2-4.3c1.5-0.9,3.4-1.4,5.7-1.4c2.3,0,4.7,0.4,7.1,1.2c2.4,0.8,4.3,1.8,5.7,3.1l4.3-6    c-2.2-1.8-4.7-3.2-7.7-4.2c-3-1-6-1.5-9-1.5c-4.7,0-8.6,1.2-11.8,3.5c-3.2,2.4-4.8,5.7-4.8,10c0,4.3,1.4,7.6,4.2,9.7    c1.4,1.1,3,2,4.8,2.7c1.8,0.7,4.4,1.5,7.9,2.3c3.5,0.8,5.9,1.7,7.3,2.8c1.4,1,2.1,2.4,2.1,4.2c0,1.8-0.8,3.3-2.3,4.4    c-1.5,1.1-3.5,1.6-6.1,1.6c-5.1,0-10.1-2.1-14.8-6.2l-5,6c5.7,5.1,12.3,7.6,19.6,7.6c5,0,9.1-1.3,12.2-3.8c3.1-2.6,4.7-5.9,4.7-10    C506.6,311.2,505.4,308.1,502.9,306z M565.7,281.6h-8.5l-20.8,47h8.5l4.7-10.7h23.6l4.7,10.7h8.5L565.7,281.6z M552.9,310.6    l8.6-19.4l8.6,19.4H552.9z"/>
	</g>
</g>
<g>
	<path class="st1" d="M98.8,367.7c-0.9-1.4-2.1-2.4-3.6-3.1c-1.5-0.6-3.1-1-4.7-1c-1.2,0-2.4,0.1-3.6,0.4c-1.2,0.3-2.2,0.7-3.1,1.3   c-0.9,0.6-1.7,1.3-2.2,2.3s-0.8,2.1-0.8,3.4c0,1,0.2,1.9,0.5,2.6c0.3,0.8,0.8,1.5,1.6,2.1s1.7,1.2,3,1.7c1.2,0.5,2.8,1.1,4.6,1.6   c1.8,0.5,3.5,1.1,5.1,1.7c1.7,0.6,3.1,1.4,4.4,2.4c1.3,1,2.3,2.1,3,3.6c0.8,1.4,1.1,3.2,1.1,5.4c0,2.2-0.5,4.1-1.4,5.7   c-0.9,1.6-2.1,2.9-3.6,4c-1.5,1.1-3.2,1.8-5.1,2.3c-1.9,0.5-3.9,0.8-6,0.8c-1.3,0-2.7-0.1-4-0.3c-1.3-0.2-2.6-0.6-3.8-1.1   s-2.4-1.1-3.5-1.9c-1.1-0.8-2-1.7-2.8-2.8l4.7-3.7c1,1.6,2.4,2.8,4.1,3.7c1.8,0.8,3.6,1.2,5.6,1.2c1.2,0,2.3-0.2,3.5-0.5   c1.2-0.3,2.2-0.8,3.2-1.5c0.9-0.6,1.7-1.4,2.3-2.4c0.6-0.9,0.9-2,0.9-3.3c0-1.4-0.2-2.5-0.7-3.3c-0.5-0.8-1.2-1.6-2.2-2.2   c-1-0.6-2.2-1.2-3.7-1.7c-1.5-0.5-3.3-1.1-5.3-1.7c-1.6-0.5-3.1-1.1-4.5-1.7c-1.4-0.6-2.6-1.4-3.6-2.4c-1-0.9-1.8-2-2.4-3.3   c-0.6-1.3-0.9-2.9-0.9-4.7c0-2.1,0.4-4,1.3-5.5c0.9-1.6,2-2.9,3.5-4c1.5-1.1,3.1-1.8,5-2.4c1.9-0.5,3.8-0.8,5.8-0.8   c2.6,0,4.9,0.4,7.1,1.2c2.1,0.8,4,2.1,5.7,4L98.8,367.7z"/>
	<path class="st1" d="M124.3,360l5.4,0l0,43.9l-5.4,0L124.3,360z"/>
	<path class="st1" d="M152.5,360l6.8,0l26.4,36.5h0.1l0-36.4l5.4,0l0,43.9l-6.8,0L158,367.4h-0.1l0,36.4l-5.4,0L152.5,360z"/>
	<path class="st1" d="M246.1,369.1c-1.4-1.8-3.1-3.1-5.1-4c-2-0.9-4.1-1.3-6.3-1.3c-2.5,0-4.9,0.5-7,1.5c-2.1,1-4,2.3-5.5,4   c-1.6,1.7-2.8,3.6-3.6,5.8c-0.9,2.2-1.3,4.5-1.3,6.9c0,2.5,0.4,4.9,1.3,7.1c0.9,2.2,2.1,4.2,3.6,5.8c1.5,1.6,3.4,2.9,5.5,3.9   c2.1,1,4.5,1.4,7.1,1.4c2.8,0,5.3-0.5,7.5-1.6c2.2-1.1,4.1-2.6,5.7-4.5l4.1,3.3c-2.1,2.6-4.6,4.6-7.5,5.8c-2.9,1.2-6.2,1.9-9.8,1.8   c-3.3,0-6.3-0.6-9.2-1.7c-2.8-1.2-5.3-2.8-7.4-4.8c-2.1-2-3.7-4.5-4.9-7.3c-1.2-2.8-1.8-5.9-1.8-9.2c0-3.2,0.6-6.2,1.7-9   c1.1-2.8,2.7-5.2,4.8-7.3c2.1-2.1,4.5-3.7,7.4-4.9s6-1.8,9.4-1.8c3.1,0,6.1,0.5,8.9,1.6c2.9,1.1,5.3,2.8,7.2,5.3L246.1,369.1z"/>
	<path class="st1" d="M270.9,360.1l28.7,0l0,4.8l-23.3,0l0,13.8l21.8,0l0,4.8l-21.8,0l0,15.6l24.5,0l0,4.8l-29.9,0L270.9,360.1z"/>
	<path class="st1" d="M367.3,404.1l-5.4,0l0-37.2h-0.1l-8.2,6.6l-3.2-3.8l12.3-9.5l4.7,0L367.3,404.1z"/>
	<path class="st1" d="M414.1,385.8l-0.1-0.1c-0.9,0.5-1.9,0.8-3,1c-1.1,0.2-2.2,0.3-3.1,0.3c-2,0-3.8-0.3-5.5-1   c-1.7-0.7-3.2-1.6-4.4-2.8c-1.2-1.2-2.2-2.7-2.9-4.4c-0.7-1.7-1-3.6-1-5.6c0-2.1,0.4-4.1,1.2-5.8c0.8-1.7,1.9-3.1,3.2-4.3   c1.4-1.2,3-2.1,4.9-2.7c1.9-0.6,3.9-1,6-1c2.2,0,4.2,0.3,6,1c1.9,0.6,3.5,1.6,4.9,2.7c1.4,1.2,2.5,2.6,3.2,4.3   c0.8,1.7,1.2,3.6,1.2,5.8c0,2.6-0.4,4.8-1.2,6.7s-1.9,3.8-3.1,5.7l-12.2,18.5l-6.3,0L414.1,385.8z M409.3,382.5   c1.4,0,2.7-0.2,3.9-0.6s2.3-1.1,3.1-1.9c0.9-0.8,1.6-1.8,2.1-2.9s0.8-2.4,0.8-3.8c0-1.4-0.3-2.7-0.8-3.9s-1.2-2.1-2.1-2.9   c-0.9-0.8-1.9-1.4-3.1-1.9c-1.2-0.4-2.5-0.7-3.9-0.7c-1.4,0-2.7,0.2-3.9,0.6s-2.3,1.1-3.1,1.9c-0.9,0.8-1.6,1.8-2.1,2.9   c-0.5,1.1-0.8,2.4-0.8,3.9c0,1.4,0.3,2.7,0.8,3.8c0.5,1.2,1.2,2.1,2.1,2.9s1.9,1.4,3.1,1.9C406.6,382.3,407.9,382.5,409.3,382.5z"/>
	<path class="st1" d="M443.5,371c0-1.7,0.3-3.3,1-4.7c0.7-1.4,1.6-2.6,2.7-3.6s2.5-1.8,4.1-2.3c1.6-0.6,3.3-0.8,5.2-0.8   c1.8,0,3.6,0.3,5.2,0.8c1.6,0.6,3,1.3,4.1,2.3s2.1,2.2,2.7,3.6c0.7,1.4,1,3,1,4.7c0,1-0.2,2.1-0.5,3.1c-0.3,1-0.8,2-1.5,2.8   s-1.4,1.6-2.4,2.3c-0.9,0.7-2,1.1-3.1,1.4v0.1c1.4,0.3,2.6,0.8,3.7,1.5c1.1,0.7,2.1,1.5,2.8,2.5c0.8,1,1.4,2.1,1.8,3.4   c0.4,1.3,0.6,2.6,0.6,3.9c0,2-0.4,3.8-1.1,5.4c-0.8,1.6-1.8,2.9-3.1,4.1c-1.3,1.1-2.9,2-4.7,2.5c-1.8,0.6-3.7,0.9-5.7,0.9   c-2,0-3.9-0.3-5.7-0.9c-1.8-0.6-3.3-1.4-4.6-2.5c-1.3-1.1-2.3-2.5-3.1-4.1c-0.8-1.6-1.1-3.4-1.1-5.4c0-1.4,0.2-2.7,0.6-3.9   c0.4-1.3,1-2.4,1.8-3.4c0.8-1,1.7-1.8,2.8-2.5c1.1-0.7,2.4-1.2,3.7-1.5v-0.1c-1.2-0.3-2.2-0.8-3.1-1.4c-0.9-0.7-1.7-1.4-2.4-2.3   c-0.6-0.9-1.1-1.8-1.5-2.9C443.7,373.1,443.5,372,443.5,371z M447.4,391.7c0,1.3,0.2,2.5,0.7,3.5c0.5,1.1,1.1,2,2,2.8   c0.8,0.8,1.8,1.4,2.9,1.8c1.1,0.4,2.3,0.7,3.6,0.7c1.3,0,2.5-0.2,3.6-0.6c1.1-0.4,2.1-1,2.9-1.8c0.8-0.8,1.5-1.7,2-2.8   c0.5-1.1,0.7-2.3,0.7-3.5c0-1.3-0.2-2.5-0.7-3.5c-0.5-1.1-1.1-2-2-2.8c-0.8-0.8-1.8-1.4-2.9-1.8s-2.3-0.7-3.6-0.7   c-1.3,0-2.5,0.2-3.6,0.6c-1.1,0.4-2.1,1-2.9,1.8c-0.8,0.8-1.5,1.7-2,2.8C447.6,389.2,447.4,390.4,447.4,391.7z M448.9,371.2   c0,2.1,0.7,3.8,2.1,5.2c1.4,1.4,3.2,2,5.5,2s4.1-0.7,5.5-2c1.4-1.4,2.1-3.1,2.1-5.2c0-2.1-0.7-3.8-2.1-5.2c-1.4-1.4-3.2-2-5.5-2   c-2.3,0-4.1,0.7-5.5,2C449.6,367.4,448.9,369.1,448.9,371.2z"/>
	<path class="st1" d="M516.9,365.2l-18.3,39l-6.1,0l18.6-39l-22.1,0l0-4.8l27.9,0L516.9,365.2z"/>
</g>
<g>
	<path class="st2" d="M345.8,4.6c62.3,0,112.8,50.6,112.8,112.9c0,62.4-50.5,112.9-112.8,112.9C283.5,230.5,233,180,233,117.6   C233,55.2,283.5,4.6,345.8,4.6z"/>
	<g id="Swift_Shadow_8_">
		<path class="st3" d="M233.2,118c0,10.2,1.3,20,3.9,29.4c-3,1-5.9,2-8.9,3.1c0,0,3.3-0.7,9.3-1.8c6.4,22.8,19.7,42.7,37.6,57.2    c-4,0.8-8.3,1.5-12.6,2l8.3,7.7c28.9,3.3,41.8-3.9,56.3-14.3c37.3-26.6,42.8-55.2,43.2-56c0.3-0.5-20.2-7-20.8-26.1    c-0.4-12.7,11.1-22.7,11.1-22.7l1.7-1.8c0,0-7.9-56.1-57.8-80.2h-10.9l-11.5,4.1c1.4,1,2.5,1.9,3.9,3    c-25.6,16-44.1,42.5-50.5,73.1c-3.1-0.5-6.3-1-9.5-1.5c0,0,3.5,1.1,9.3,2.8C234,103,233.2,110.4,233.2,118z"/>
	</g>
	<g>
		<g>
			<path class="st4" d="M430.3,95.5c-0.3-2.1-12.7-3.2-16.3-4.6c0,0-30.5-88.4-157.7-90.9c0,0,0,0,0,0c-0.4,0-0.7,0-1.1,0     c0,0,12.2,7.8,28.2,19.9c-3.4,1.3-6.3,3.1-8.5,5.3c23.5,16.5,60.7,36.3,77.3,68.7c-6,1.4-20.3,4.1-44.2,4.4c-1,0-1.9,0-2.9,0     c-0.3,0-0.6,0-0.9,0c-19.1,0-43.7-1.5-74.2-6.1c-0.2,0-0.5-0.1-0.7-0.1c-2.1-0.3-4.3-0.7-6.5-1c-0.4-0.1-0.8-0.1-1.2-0.2     c-2.2-0.4-4.5-0.7-6.8-1.1c0,0,69.5,20.4,101.6,34.8c0,0-56.2,13.9-99.5,29.2c0,0,59.9-14.4,125.1-14.6c7.9,0,11.8,9.4,20.3,11     c-1.6,2.5-6.6,9.6-15.3,18.2c-19.1,13.4-49.6,29.9-80.3,32.2c1.2,1.9,2.6,3.9,4.7,5.8c-11.5,2-24.1,2.9-38,2.3     c0,0,0.8,0.4,2.2,1.2c-0.4,0-0.8,0-1.2,0c0,0,46.2,25.2,97.4,9.9c66.1-19.7,79.5-48.8,92.7-71.7c13.4-23.1,42.8-28.1,42.8-28.1     S432.2,108.7,430.3,95.5z M415.6,155c-9.7,16.6-22.2,34.4-54.8,49.3c-6.3,2.3-12.9,4.2-19.9,5.6c-37,7.4-54.9,5.1-64.5,0     c27.2-5.6,47.3-17.1,60.5-27.2c20-15.2,29.1-30.4,29.4-31.1l3.8-6.4l-7.1-0.5c-3.6-0.2-6-2.2-8.7-4.5c-3.2-2.6-6.8-5.6-12.4-5.6     c-27.1,0.1-7.4-2.2-26.7,0.1c15.9-6.4,2.6-6,2.7-6l9-4.2l-9-4c-13.7-6.1,10.4-1.4-1.6-7c17.4,2.1-5-8.2,9.6-8.2     c22.2,0,27.6-3.4,28.2-6.4c2.7-1,4.1-1.7,4.3-1.7l3.9-2.1l-2.1-4.1c-12.9-25.7-45.7-53.9-70.6-72.8c16.7-3.5,40.7,1.1,59.1,8.9     c11,6.3,20.1,13.3,27.4,20.3c21.7,20.8,32.9,44.6,35,49.1c0,0,0,0,0,0.1c0,0.1,0.1,0.2,0.1,0.3c0,0.1,0.1,0.2,0.1,0.3     c0,0,0,0,0,0c0,0.1,0.1,0.1,0.1,0.1L412,99C412,99,424.5,123.3,415.6,155z M433.1,120.2c-2.2,0-3.9-1.8-3.9-3.9     c0-2.2,1.8-3.9,3.9-3.9c2.2,0,3.9,1.8,3.9,3.9C437,118.5,435.2,120.2,433.1,120.2z M88.4,48.1h116.4v-3.4H88.4V48.1z M88.4,121.3     h116.4V118H88.4V121.3z M88.4,194.6h116.4v-3.4H88.4V194.6z"/>
		</g>
	</g>
</g>
</svg>