<svg xmlns="http://www.w3.org/2000/svg" width="1280.000000pt" height="1280.000000pt" viewBox="0 0 1280.000000 1280.000000">
<g transform="translate(0.000000,1280.000000) scale(0.100000,-0.100000)"
fill="#000000" stroke="none">
<path d="M5673 11228 l-372 -192 -370 -850 c-743 -1708 -1060 -2436 -1601
-3681 -304 -698 -622 -1430 -708 -1625 -85 -195 -212 -488 -282 -650 -121
-280 -385 -885 -547 -1255 -41 -93 -141 -325 -223 -515 -82 -190 -221 -509
-308 -710 l-159 -365 964 -3 963 -2 363 186 c199 103 367 192 374 198 12 11
93 213 492 1226 105 267 202 510 214 540 l23 55 1795 -4 c986 -2 1796 -7 1799
-12 3 -4 205 -498 450 -1098 l444 -1091 984 0 984 0 374 191 c206 105 374 191
374 193 0 3 -60 144 -320 746 -139 322 -265 614 -280 650 -15 36 -141 328
-280 650 -139 322 -265 614 -280 650 -15 36 -141 328 -280 650 -139 322 -265
614 -280 650 -15 36 -141 328 -280 650 -139 322 -265 614 -280 650 -24 58
-332 771 -642 1490 -61 140 -136 316 -168 390 -32 74 -158 367 -280 650 -122
283 -282 655 -355 825 -74 171 -201 465 -282 655 l-149 345 -749 2 -750 3
-372 -192z m717 -3278 c45 -118 108 -285 140 -370 32 -85 95 -252 140 -370 45
-118 158 -415 251 -660 93 -245 224 -591 292 -770 l123 -325 -1045 -3 c-574
-1 -1046 0 -1048 2 -4 4 40 118 467 1226 149 388 339 881 422 1095 83 215 153
396 156 404 7 19 9 15 102 -229z"/>
</g>
</svg>
